<svg xmlns="http://www.w3.org/2000/svg" width="55" height="52.608" viewBox="0 0 55 52.608">
  <g id="equality" transform="translate(-0.003 -11.133)">
    <g id="Group_1279" data-name="Group 1279" transform="translate(0.003 11.133)">
      <path id="Path_4898" data-name="Path 4898" d="M171.372,25.118l4.4-3.229,4.4,3.229a3.4,3.4,0,0,0,2.011.679,3.224,3.224,0,0,0,2.332-1.011,3.276,3.276,0,0,0,.122-4.394l-6.174-7.831a3.256,3.256,0,0,0-5.39,0l-6.174,7.831a3.268,3.268,0,0,0,4.465,4.726Zm-2.778-3.4,6.174-7.831a1.136,1.136,0,0,1,2.016,0l6.174,7.831a1.123,1.123,0,0,1-1.508,1.663l-5.04-3.694a1.074,1.074,0,0,0-1.27,0L170.1,23.385a1.124,1.124,0,0,1-1.508-1.663Z" transform="translate(-148.276 -11.133)" fill="#dfb04b"/>
      <path id="Path_4899" data-name="Path 4899" d="M224.468,141.254a4.339,4.339,0,1,0-4.339,4.339A4.344,4.344,0,0,0,224.468,141.254Zm-4.339,2.19a2.19,2.19,0,1,1,2.19-2.19A2.193,2.193,0,0,1,220.129,143.444Z" transform="translate(-192.629 -123.403)" fill="#dfb04b"/>
      <path id="Path_4900" data-name="Path 4900" d="M10.438,160.358A3.244,3.244,0,0,0,12.1,156.33l-1.71-5.187,4.432-3.191a3.268,3.268,0,0,0-3.115-5.707,1.074,1.074,0,1,0,.744,2.016,1.123,1.123,0,0,1,1.115,1.948L8.491,149.86a1.074,1.074,0,0,0-.392,1.208L10.055,157a1.123,1.123,0,0,1-2.047.92l-5.539-8.292a1.4,1.4,0,0,1-.276-1.149,1.4,1.4,0,0,1,.9-.768,1.074,1.074,0,1,0-.744-2.016,3.451,3.451,0,0,0-2.2,2.119,3.45,3.45,0,0,0,.533,3.007l5.539,8.292a3.38,3.38,0,0,0,2.8,1.574,3.222,3.222,0,0,0,1.416-.332Z" transform="translate(-0.003 -127.951)" fill="#dfb04b"/>
      <path id="Path_4901" data-name="Path 4901" d="M119.273,210.042a4.339,4.339,0,1,0,5.467-2.786A4.31,4.31,0,0,0,119.273,210.042Zm2.043.664a2.19,2.19,0,1,1,.132,1.671A2.192,2.192,0,0,1,121.316,210.706Z" transform="translate(-106.269 -185.998)" fill="#dfb04b"/>
      <path id="Path_4902" data-name="Path 4902" d="M96.038,351.679h-.016l-5.461.023L88.9,346.5a3.268,3.268,0,0,0-6.39,1.2l.392,9.964a3.247,3.247,0,0,0,4.36,3.168l9.6-2.706a3.27,3.27,0,0,0-.818-6.448Zm.235,4.38-9.6,2.706a1.131,1.131,0,0,1-1.631-1.185l-.392-9.964a1.123,1.123,0,0,1,2.2-.459l1.906,5.951a1.074,1.074,0,0,0,1.023.747h0l6.249-.027h.007a1.123,1.123,0,0,1,.235,2.231Z" transform="translate(-73.64 -308.388)" fill="#dfb04b"/>
      <path id="Path_4903" data-name="Path 4903" d="M159.657,320.564a4.31,4.31,0,0,0-2.831,1.735,4.339,4.339,0,1,0,6.06-.96A4.309,4.309,0,0,0,159.657,320.564Zm2.842,3.943a2.19,2.19,0,0,1-3.451,2.114h0a2.19,2.19,0,1,1,3.451-2.114Z" transform="translate(-139.245 -287.275)" fill="#dfb04b"/>
      <path id="Path_4904" data-name="Path 4904" d="M286.74,344.217a3.245,3.245,0,0,0-3.708,2.285l-1.666,5.2-5.461-.023h-.016a3.27,3.27,0,0,0-.818,6.448l9.6,2.706a3.247,3.247,0,0,0,4.361-3.168l.392-9.964A3.276,3.276,0,0,0,286.74,344.217Zm.535,3.4-.392,9.964a1.131,1.131,0,0,1-1.631,1.185l-9.6-2.706a1.123,1.123,0,0,1,.235-2.231h.007l6.249.027h0a1.074,1.074,0,0,0,1.023-.747l1.906-5.951a1.123,1.123,0,0,1,2.2.459Z" transform="translate(-243.288 -308.388)" fill="#dfb04b"/>
      <path id="Path_4905" data-name="Path 4905" d="M280.265,320.565A4.339,4.339,0,1,0,283.1,322.3,4.311,4.311,0,0,0,280.265,320.565Zm.609,6.057a2.19,2.19,0,1,1,.484-3.059A2.177,2.177,0,0,1,280.874,326.623Z" transform="translate(-245.678 -287.276)" fill="#dfb04b"/>
      <path id="Path_4906" data-name="Path 4906" d="M376.927,147.816a3.451,3.451,0,0,0-2.2-2.119l-9.355-3.452a3.268,3.268,0,0,0-3.115,5.707l4.432,3.191-1.71,5.187a3.268,3.268,0,0,0,5.874,2.786l5.539-8.292A3.45,3.45,0,0,0,376.927,147.816Zm-2.32,1.813-5.539,8.292a1.123,1.123,0,0,1-2.047-.92l1.956-5.935a1.074,1.074,0,0,0-.392-1.208l-5.071-3.651a1.114,1.114,0,0,1-.385-1.48,1.132,1.132,0,0,1,1.5-.467l9.355,3.452a1.131,1.131,0,0,1,.623,1.917Z" transform="translate(-322.073 -127.949)" fill="#dfb04b"/>
      <path id="Path_4907" data-name="Path 4907" d="M320.333,213.338a4.31,4.31,0,0,0,.26-3.31h0a4.339,4.339,0,1,0-.26,3.31Zm-5.949-1.293a2.19,2.19,0,0,1,4.166-1.354h0a2.19,2.19,0,0,1-4.166,1.353Z" transform="translate(-278.598 -185.983)" fill="#dfb04b"/>
      <path id="Path_4908" data-name="Path 4908" d="M59.952,161.8a1.074,1.074,0,0,0,0-2.148h0A1.074,1.074,0,0,0,59.952,161.8Z" transform="translate(-52.558 -143.694)" fill="#dfb04b"/>
    </g>
  </g>
</svg>
