<svg xmlns="http://www.w3.org/2000/svg" width="20" height="20" viewBox="0 0 20 20">
  <g id="family_1_" data-name="family (1)" transform="translate(-1 -1)">
    <path id="Path_5795" data-name="Path 5795" d="M20.839,13.624l-3.871-2.258a.323.323,0,0,0-.325,0L14.7,12.5a3.2,3.2,0,0,0-.5-.272,2.258,2.258,0,0,0,.991-1.811,5.72,5.72,0,0,0,1.938-4.293A5.122,5.122,0,0,0,9.372,1.73l-.307.184L8.757,1.73A5.122,5.122,0,0,0,1,6.122a5.717,5.717,0,0,0,1.938,4.29,2.258,2.258,0,0,0,.992,1.813,3.23,3.23,0,0,0-1.963,2.968v4.194a.323.323,0,0,0,.323.323H6.161v.968A.323.323,0,0,0,6.484,21h5.161a.323.323,0,0,0,.323-.323v-.968h2.553c.057.037.114.074.173.109l1.952,1.138a.323.323,0,0,0,.325,0l1.95-1.138A4.208,4.208,0,0,0,21,16.2V13.9A.323.323,0,0,0,20.839,13.624Zm-7.9-1.657a1.613,1.613,0,1,1,1.613-1.613A1.613,1.613,0,0,1,12.935,11.967ZM1.645,6.122a4.477,4.477,0,0,1,6.78-3.839l.473.284a.323.323,0,0,0,.332,0L9.7,2.283a4.477,4.477,0,0,1,6.78,3.839,5.079,5.079,0,0,1-1.409,3.516,2.258,2.258,0,1,0-3.4,2.589,3.218,3.218,0,0,0-.877.554,2.254,2.254,0,0,0-3.467,0,3.22,3.22,0,0,0-.877-.554,2.258,2.258,0,1,0-3.4-2.589A5.078,5.078,0,0,1,1.645,6.122Zm7.419,9.716a1.613,1.613,0,1,1,1.613-1.613,1.613,1.613,0,0,1-1.613,1.613ZM3.581,10.355a1.613,1.613,0,1,1,1.613,1.613,1.613,1.613,0,0,1-1.613-1.613Zm-.968,8.71V15.193a2.578,2.578,0,0,1,4.374-1.852,2.254,2.254,0,0,0,.846,2.774,2.9,2.9,0,0,0-1.672,2.626v.323Zm8.71,1.29H6.806V18.742a2.258,2.258,0,1,1,4.516,0ZM10.3,16.116a2.254,2.254,0,0,0,.846-2.774,2.558,2.558,0,0,1,2.916-.467l-1.284.749a.323.323,0,0,0-.161.279V16.2a4.207,4.207,0,0,0,1.139,2.869H11.968v-.323A2.9,2.9,0,0,0,10.3,16.116Zm10.059.079a3.56,3.56,0,0,1-1.761,3.064L16.806,20.3l-1.788-1.043A3.56,3.56,0,0,1,13.258,16.2V14.088l3.548-2.07,3.548,2.07Z" transform="translate(0 0)" fill="#dfb04b"/>
    <path id="Path_5796" data-name="Path 5796" d="M42.519,42.708a.323.323,0,0,0-.456,0l-.968.968a.323.323,0,0,0,0,.456l1.935,1.935a.323.323,0,0,0,.456,0l3.548-3.548a.323.323,0,0,0,0-.456l-.968-.968a.323.323,0,0,0-.456,0l-2.353,2.353Zm3.32-.929.512.512-3.092,3.092L41.779,43.9l.512-.512.74.74a.323.323,0,0,0,.456,0Z" transform="translate(-27.097 -27.097)" fill="#dfb04b"/>
  </g>
</svg>
