<svg xmlns="http://www.w3.org/2000/svg" width="40" height="39.996" viewBox="0 0 40 39.996">
  <g id="family" transform="translate(0 -0.024)">
    <g id="Group_1714" data-name="Group 1714" transform="translate(0 0.024)">
      <path id="Path_5770" data-name="Path 5770" d="M38.65,24.849A4.085,4.085,0,0,0,36.682,21.6c-.9-.552-1.632-.638-5.087-1.5v-.181h3.448a1.53,1.53,0,0,0,1.528-1.509c.435-7.38.5-8.226.471-8.575a.586.586,0,1,0-1.172,0V10.4c-.491,8.335-.471,7.966-.471,8a.361.361,0,0,1-.356.356H31.6V18.6A6.668,6.668,0,0,0,34.2,16.209a7.977,7.977,0,0,0,.971-4.841,1.1,1.1,0,0,0-1.059-1.1h0a9.369,9.369,0,0,1-7.155-3.38.977.977,0,0,0-1.5-.051,4.467,4.467,0,0,1-2.477,1.453A1.03,1.03,0,0,0,22.145,9.3c0,3.683,0,3.48.005,3.739A6.529,6.529,0,0,0,25.7,18.588v.163H22.2a.361.361,0,0,1-.356-.356c0-.034.02.321-.472-8.017,0-.011,0-.022,0-.032-.007-.061-.654-6.1,2.735-6.842a.586.586,0,0,0,.4-.3c.014-.027,1.46-2.726,6.123-1.818A7.35,7.35,0,0,1,35.778,7.2a.586.586,0,1,0,1.157-.186,8.4,8.4,0,0,0-2.152-4.4l-.042-.045A8.583,8.583,0,0,0,30.847.231,7.988,7.988,0,0,0,25.115,1a5.121,5.121,0,0,0-1.508,1.425c-1.729.491-2.862,2.033-3.283,4.477a14.063,14.063,0,0,0-.12,3.564c.549,8.476.361,8.158.678,8.7a5.431,5.431,0,0,0-4.644,1.422l-.512-.128L14.3,19.777V18.587A6.472,6.472,0,0,0,17.7,14.214a6.632,6.632,0,0,0,.157-1.429v-.006A2.21,2.21,0,0,0,19.7,10.711a1.93,1.93,0,0,0-.369-1.126,12.406,12.406,0,0,0-.277-3.663,7.972,7.972,0,0,0-1.588-3.039l-.006-.007A7.99,7.99,0,0,0,3.349,8.013c0,.514,0,1.51,0,1.572a2.068,2.068,0,0,0,1.476,3.194A6.529,6.529,0,0,0,8.406,18.6v1.162l-1.484.71c-1.616.453-2.87.571-3.83,1.283a3.975,3.975,0,0,0-1.741,3.1C-.04,37.428-.007,36.664,0,37.224a2.669,2.669,0,0,0,2.754,2.8H7.878a.586.586,0,1,0,0-1.172h-2.2l.581-10.99a.586.586,0,1,0-1.17-.062l-.122,2.311-2.989-.314.01-.087c.6-4.777.386-5.5,1.193-6.459l.007-.008c.982-1.159,2.538-1.185,3.743-1.561l1.8,2.306a1.164,1.164,0,0,0,1.743.1l.281-.283v2.835a.586.586,0,0,0,1.172,0V23.805l.281.283a1.164,1.164,0,0,0,.826.344l.069,0a1.164,1.164,0,0,0,.848-.445l.823-1.054a7.451,7.451,0,0,0-.247,2.393,1.821,1.821,0,0,0,1.036,3.131,4.493,4.493,0,0,0,2.3,3.2v.713c-2.067.557-3.693.58-4.428,2.333a2.184,2.184,0,0,0-.075.21c-.03.1-.058.207-.074.281-.09.437-.094.713-.438,3.655h-2.23a.586.586,0,1,0,0,1.172h18.5a.586.586,0,1,0,0-1.172h-1.95a30.848,30.848,0,0,0-.553-4.061,3.038,3.038,0,0,0-2.141-1.84l-2.321-.578v-.723a4.5,4.5,0,0,0,2.278-3.192,2.04,2.04,0,0,0,1.593-1.532,1.685,1.685,0,0,0-.164-1.081,6.834,6.834,0,0,0,2.8-1.563c2.986,2.59,5.668,2.266,5.887-2.236.43.133,2.46.444,2.866,2.407.03.147.065.356.087.535l.538,4.808-2.965.311L34.937,27.8a.586.586,0,1,0-1.17.062l.581,10.99H31.842a.586.586,0,0,0,0,1.172h5.4a2.678,2.678,0,0,0,1.96-.763A2.894,2.894,0,0,0,40,37.222C40.006,36.728,40.046,37.424,38.65,24.849ZM4.867,31.276l-.38,7.572H2.756a1.5,1.5,0,0,1-1.582-1.635c-.007-.415.015-.274.672-6.254Zm12.986-19.72V9.867A.867.867,0,0,1,17.853,11.556Zm-13.028,0a.867.867,0,0,1,0-1.69Zm.506-2.974a2.714,2.714,0,0,0-.811.147,9.656,9.656,0,0,1,.121-2,6.95,6.95,0,0,1,2.17-3.813h0a6.7,6.7,0,0,1,1.7-1.107,6.785,6.785,0,0,1,7.358,1.107,6.939,6.939,0,0,1,2.054,3.31,8.734,8.734,0,0,1,.237,2.5,2.71,2.71,0,0,0-.811-.147,1.637,1.637,0,0,1-.394-.319c-.8-.92-.121-1.633-.978-2.348-.6-.5-1.183-.312-2.252-.172-4.98.537-5.979-.7-7.018.172A1.426,1.426,0,0,0,6.192,7,1.7,1.7,0,0,1,5.332,8.582ZM6,12.785V9.55a2.785,2.785,0,0,0,1.061-1.2A3.367,3.367,0,0,0,7.365,7a.259.259,0,0,1,.3-.243c6.187.824,7.628-.5,7.647.243a3.188,3.188,0,0,0,.769,2.05,3.1,3.1,0,0,0,.6.5c0,.609,0,2.647,0,2.712a5.47,5.47,0,0,1-2.892,5.272h0a5.352,5.352,0,0,1-2.1.581c-.31.02-.615.007-.608.007A5.343,5.343,0,0,1,6,12.785Zm3.65,10.471L8.07,21.237l.794-.38L10.5,22.4Zm1.692-1.678L9.577,19.919v-.863a6.565,6.565,0,0,0,3.538,0v.853Zm1.692,1.678-.852-.859,1.646-1.55.792.379ZM15.5,27.189a.612.612,0,0,1,0-1.136Zm9.264-10.75c-1.854-2.06-1.444-3.918-1.446-7.025a5.645,5.645,0,0,0,2.86-1.633A10.62,10.62,0,0,0,34,11.433c0,1.557,0,1.279-.005,1.594v0a5.3,5.3,0,0,1-1.915,3.862l-.068.055a5.353,5.353,0,0,1-6.249.332C25.645,17.2,24.895,16.566,24.762,16.44Zm-2.1,17.266.025.006a8.571,8.571,0,0,1,2.092.629c1.068.64.766,1.429,1.2,4.507h-1.56l-.069-1.265a.586.586,0,0,0-1.17.064l.066,1.2H16.778l.066-1.2a.586.586,0,0,0-1.17-.064L15.6,38.848H14.029c.388-3.33.224-3.924,1.2-4.507a8.227,8.227,0,0,1,2.117-.635,3.544,3.544,0,0,0,5.315,0ZM19.03,32.092a4.506,4.506,0,0,0,.747.1l.042,0h.042a4.4,4.4,0,0,0,1.11-.105c.029.225-.129.88.361,1.235a2.369,2.369,0,0,1-2.664,0C19.157,32.968,19,32.307,19.03,32.092Zm4.276-4.2c0,.043-.005.083-.009.122a3.321,3.321,0,0,1-6.6.119c-.05-.382-.018-.687-.028-2.315a5.054,5.054,0,0,0,5.151-1.526,3.141,3.141,0,0,0,1.491,1.235C23.311,28.036,23.316,27.719,23.306,27.893Zm.979-3.132a.941.941,0,0,0-.522-.317,2.134,2.134,0,0,1-1.175-1.149.858.858,0,0,0-1.536.028c-.343.721-1.907,1.974-4.554,1.25a.785.785,0,0,0-.743.181l-.058.009c0-.385,0-.4,0-.392a4.3,4.3,0,0,1,7.134-3.03s.007,0,.006.006a4.267,4.267,0,0,1,1.367,2.4A5.034,5.034,0,0,1,24.285,24.761Zm-.538-4.171a5.015,5.015,0,0,0-.858-.666H25.7V20.1Zm.737,6.6V26.053a.7.7,0,0,1,.386.569A.714.714,0,0,1,24.484,27.19Zm.973-2.466a5.586,5.586,0,0,0-.3-1.963,5.375,5.375,0,0,0,2.107,1.116A4.3,4.3,0,0,1,25.457,24.724Zm-.009-3.349.76-.189a.592.592,0,0,0,.1-.035,1.073,1.073,0,0,0,.563-1v-1.1a6.524,6.524,0,0,0,3.552.006v1.09a1.073,1.073,0,0,0,.563,1,.587.587,0,0,0,.1.035l.758.189A4.143,4.143,0,0,1,25.447,21.374Zm6.929,3.288c-.679.283-1.749-.353-2.353-.79a5.49,5.49,0,0,0,3.062-2.189l.286.071C33.323,23.387,32.975,24.413,32.377,24.662ZM38.37,38.433c-.621.63-1.465.34-2.849.415l-.4-7.572,3.034-.318.66,5.9A1.916,1.916,0,0,1,38.37,38.433Z" transform="translate(0 -0.024)" fill="#daa54b"/>
    </g>
  </g>
</svg>
