<svg xmlns="http://www.w3.org/2000/svg" width="20" height="20" viewBox="0 0 20 20">
  <g id="graduation_cap-world-globe-book-education" data-name="graduation cap-world-globe-book-education" transform="translate(-2 -2)">
    <path id="Path_5810" data-name="Path 5810" d="M22,16.333a1,1,0,0,0-1-1H14.737A6,6,0,0,0,18,10a5.831,5.831,0,0,0-.087-.97l3.91-2.07a.333.333,0,0,0-.02-.6L12.137,2.03a.326.326,0,0,0-.273,0L2.2,6.363a.333.333,0,0,0-.02.6l1.157.613V9.047a1.333,1.333,0,0,0-1,1.287v1a.333.333,0,0,0,.333.333h2A.333.333,0,0,0,5,11.333v-1A1.333,1.333,0,0,0,4,9.047V7.927l2.087,1.1A5.831,5.831,0,0,0,6,10a6,6,0,0,0,3.263,5.333H5.333a3.333,3.333,0,0,0,0,6.667H21a1,1,0,1,0,0-2V17.333a1,1,0,0,0,1-1Zm-10-1a5.319,5.319,0,0,1-2.667-.72V11.8l1.2-1.2.62-.31a.333.333,0,0,0,.173-.377L10.99,8.587a.333.333,0,0,0-.243-.243L9.413,8.01a.325.325,0,0,0-.16,0l-1.27.317-.993-.14a5.34,5.34,0,0,1,1.377-2.08l1.1.827a.2.2,0,0,0,.05.03l1.333.667a.333.333,0,0,0,.1.033l2,.333A.287.287,0,0,0,13,8a.328.328,0,0,0,.277-.15l.6-.9.893-.3a.353.353,0,0,0,.13-.08l.59-.59a5.2,5.2,0,0,1,.78.843l-1.147.917c-.01.007-.02.017-.03.023l-.95.953-1.6.64a.256.256,0,0,0-.06.033l-1,.667a.336.336,0,0,0-.147.223l-.333,2a.331.331,0,0,0,.18.35l1.15.577V14a.333.333,0,0,0,.333.333H14a.322.322,0,0,0,.183-.057l.88-.583.62.153A5.3,5.3,0,0,1,12,15.333ZM8.9,5.673a5.3,5.3,0,0,1,6.063-.107l-.473.477-.927.307a.321.321,0,0,0-.17.133l-.547.82-1.74-.29-1.26-.63Zm7.293,7.613-1.11-.277a.321.321,0,0,0-.263.047l-.917.61H13V13a.326.326,0,0,0-.183-.3L11.7,12.147l.27-1.617.85-.567,1.633-.653a.368.368,0,0,0,.113-.073l.987-.987,1.083-.87A5.3,5.3,0,0,1,16.19,13.287ZM4.333,10.333V11H3v-.667a.667.667,0,0,1,1.333,0ZM3.093,6.69,12,2.7l8.907,3.99-3.14,1.667a5.995,5.995,0,0,0-11.533,0Zm5.67,4.74a.344.344,0,0,0-.1.237v2.49a5.323,5.323,0,0,1-2-4.157A5.2,5.2,0,0,1,6.8,8.833L7.953,9c.043,0,.083,0,.127-.007l1.253-.313,1.06.263.22.88-.43.217c-.027.02-.057.04-.087.06ZM6,16.667a2,2,0,0,0,0,4H21a.333.333,0,0,1,0,.667H5.333a2.667,2.667,0,1,1,0-5.333H21a.333.333,0,0,1,0,.667Zm14.333.667V20H6a1.333,1.333,0,1,1,0-2.667Z" fill="#dfb04b"/>
    <path id="Path_5811" data-name="Path 5811" d="M14,50v.667H24v1a.333.333,0,0,0,.517.277l.817-.543.817.543a.333.333,0,0,0,.517-.277v-1h1V50Zm12,1.043-.483-.32a.325.325,0,0,0-.367,0l-.483.32v-.377H26Z" transform="translate(-8 -32)" fill="#dfb04b"/>
  </g>
</svg>
