<svg xmlns="http://www.w3.org/2000/svg" width="20" height="19.333" viewBox="0 0 20 19.333">
  <g id="graph" transform="translate(-2 -3)">
    <path id="Path_6191" data-name="Path 6191" d="M6,48.01V45.343H7a.333.333,0,0,0,.251-.553L4.918,42.124a.343.343,0,0,0-.5,0L2.082,44.791a.333.333,0,0,0,.251.553h1V48.01a.333.333,0,0,0,.333.333h2A.333.333,0,0,0,6,48.01Zm-.667-3v2.667H4V45.01a.333.333,0,0,0-.333-.333h-.6l1.6-1.827,1.6,1.827h-.6A.333.333,0,0,0,5.333,45.01Z" transform="translate(0 -26.01)" fill="#dfb04b"/>
    <path id="Path_6192" data-name="Path 6192" d="M50,48.01V45.343h1a.333.333,0,0,0,.251-.553l-2.333-2.667a.343.343,0,0,0-.5,0l-2.333,2.667a.333.333,0,0,0,.251.553h1V48.01a.333.333,0,0,0,.333.333h2A.333.333,0,0,0,50,48.01Zm-.667-3v2.667H48V45.01a.333.333,0,0,0-.333-.333h-.6l1.6-1.827,1.6,1.827h-.6A.333.333,0,0,0,49.333,45.01Z" transform="translate(-29.333 -26.01)" fill="#dfb04b"/>
    <path id="Path_6193" data-name="Path 6193" d="M28.975,40.128a.333.333,0,0,0-.072-.363L26.236,37.1a.333.333,0,0,0-.471,0L23.1,39.764a.333.333,0,0,0,.236.569h1v4.333a.333.333,0,0,0,.333.333h2.667a.333.333,0,0,0,.333-.333V40.333h1A.333.333,0,0,0,28.975,40.128Zm-1.641-.461A.333.333,0,0,0,27,40v4.333H25V40a.333.333,0,0,0-.333-.333h-.529L26,37.8l1.862,1.862Z" transform="translate(-14 -22.667)" fill="#dfb04b"/>
    <path id="Path_6194" data-name="Path 6194" d="M24,8a.333.333,0,0,0,.333.333h2A.333.333,0,0,0,26.667,8V3.333A.333.333,0,0,0,26.333,3h-2A.333.333,0,0,0,24,3.333Zm.667-4.333H26v4H24.667Z" transform="translate(-14.667)" fill="#dfb04b"/>
    <path id="Path_6195" data-name="Path 6195" d="M16.333,11a.333.333,0,0,0,.333-.333V7.333A.333.333,0,0,0,16.333,7h-2A.333.333,0,0,0,14,7.333v3.333a.333.333,0,0,0,.333.333ZM14.667,7.667H16v2.667H14.667Z" transform="translate(-8 -2.667)" fill="#dfb04b"/>
    <path id="Path_6196" data-name="Path 6196" d="M6.333,12.333A.333.333,0,0,0,6.667,12V9.333A.333.333,0,0,0,6.333,9h-2A.333.333,0,0,0,4,9.333V12a.333.333,0,0,0,.333.333ZM4.667,9.667H6v2H4.667Z" transform="translate(-1.333 -4)" fill="#dfb04b"/>
    <path id="Path_6197" data-name="Path 6197" d="M6.985,9.055a.333.333,0,0,0-.446.078L2.206,14.8l.529.4L6.881,9.783l5.408,3.5a.333.333,0,0,0,.425-.053L20.681,4.65l-.469,1.409.633.211.943-2.829a.333.333,0,0,0-.421-.421l-2.829.942.211.633,1.556-.52-7.887,8.494Z" transform="translate(-0.137 -0.002)" fill="#dfb04b"/>
    <path id="Path_6198" data-name="Path 6198" d="M48.333,27v1.333H47V29h1.333v1.333H49V29h1.333v-.667H49V27Z" transform="translate(-30 -16)" fill="#dfb04b"/>
  </g>
</svg>
