<svg id="Group_1715" data-name="Group 1715" xmlns="http://www.w3.org/2000/svg" width="39.607" height="40" viewBox="0 0 39.607 40">
  <path id="Path_5774" data-name="Path 5774" d="M87.269,83.908a.586.586,0,0,0-.823.1l-2.711,3.462-1.511-1.117a.586.586,0,0,0-.7.942L83.5,88.75a.586.586,0,0,0,.81-.11l3.063-3.91A.586.586,0,0,0,87.269,83.908Z" transform="translate(-75.136 -77.237)" fill="#daa54b"/>
  <path id="Path_5775" data-name="Path 5775" d="M47.228,44.667a1.719,1.719,0,0,0-1.717,1.717v7.933a1.719,1.719,0,0,0,1.717,1.717h7.933a1.719,1.719,0,0,0,1.717-1.717V46.384a1.719,1.719,0,0,0-1.717-1.717Zm8.479,1.717v7.933a.546.546,0,0,1-.545.545H47.228a.546.546,0,0,1-.545-.545V46.384a.546.546,0,0,1,.545-.545h7.933A.546.546,0,0,1,55.707,46.384Z" transform="translate(-42.152 -41.177)" fill="#daa54b"/>
  <path id="Path_5776" data-name="Path 5776" d="M18.488,38.828H5.711A2.026,2.026,0,0,1,3.688,36.8V3.2A2.026,2.026,0,0,1,5.711,1.172H24.806a1.4,1.4,0,0,1,.233.021V5.2a3.2,3.2,0,0,0,3.2,3.2h4.011a1.4,1.4,0,0,1,.021.233V13.5a.586.586,0,0,0,1.172,0V8.632a2.546,2.546,0,0,0-.751-1.812L26.618.751A2.546,2.546,0,0,0,24.806,0H5.711a3.2,3.2,0,0,0-3.2,3.2V36.8a3.2,3.2,0,0,0,3.2,3.2H18.488a.586.586,0,1,0,0-1.172Zm12.949-31.6h-3.2A2.026,2.026,0,0,1,26.211,5.2V2Z" transform="translate(-2.516 0)" fill="#daa54b"/>
  <path id="Path_5777" data-name="Path 5777" d="M240.023,212.328h-3.577c-.672-1.8-2.028-2.409-2.028-4.866v-.014a5.9,5.9,0,0,1,1.314-3.756,5.272,5.272,0,1,0-8.192-.069,6.165,6.165,0,0,1,1.371,3.817v.022c0,2.459-1.359,3.075-2.028,4.866h-3.577a2.938,2.938,0,0,0-2.935,2.935v1.281a1.21,1.21,0,0,0,.961,1.182v.626a1.476,1.476,0,0,0,1.474,1.474h17.715A1.476,1.476,0,0,0,242,218.353v-.626a1.21,1.21,0,0,0,.961-1.182v-1.281A2.939,2.939,0,0,0,240.023,212.328Zm-9.94-4.866v-.022a7.34,7.34,0,0,0-1.626-4.548,4.1,4.1,0,1,1,6.372.054,7.071,7.071,0,0,0-1.583,4.5v.014c0,2.632,1.389,3.731,1.929,4.866h-7.02C228.7,211.187,230.083,210.1,230.083,207.462Zm-8.54,7.8a1.765,1.765,0,0,1,1.763-1.763h16.717a1.765,1.765,0,0,1,1.763,1.763v1.281a.036.036,0,0,1-.036.036H221.579a.036.036,0,0,1-.036-.036Zm18.979,3.392H222.807a.3.3,0,0,1-.3-.3v-.6h18.32v.6A.3.3,0,0,1,240.522,218.655Z" transform="translate(-203.351 -179.827)" fill="#daa54b"/>
</svg>
