<svg xmlns="http://www.w3.org/2000/svg" width="20" height="20.095" viewBox="0 0 20 20.095">
  <g id="healthcare-covid19-coronavirus-hand-hearth" transform="translate(-2.24 -2.199)">
    <path id="Path_5797" data-name="Path 5797" d="M29.368,10.344H28.36V9.336A.336.336,0,0,0,28.024,9H26.68a.336.336,0,0,0-.336.336v1.008H25.336A.336.336,0,0,0,25,10.68v1.344a.336.336,0,0,0,.336.336h1.008v1.008a.336.336,0,0,0,.336.336h1.344a.336.336,0,0,0,.336-.336V12.36h1.008a.336.336,0,0,0,.336-.336V10.68A.336.336,0,0,0,29.368,10.344Zm-.336,1.344H28.024a.336.336,0,0,0-.336.336v1.008h-.672V12.024a.336.336,0,0,0-.336-.336H25.672v-.672H26.68a.336.336,0,0,0,.336-.336V9.672h.672V10.68a.336.336,0,0,0,.336.336h1.008Z" transform="translate(-15.112 -4.516)" fill="#dfb04b"/>
    <path id="Path_5798" data-name="Path 5798" d="M41.982,15.364a1.539,1.539,0,0,0,.01-.178,1.351,1.351,0,0,0-1.069-1.314,1.368,1.368,0,0,0-1.579,1l-1.478,4.254a.549.549,0,0,0-.064.03l-2.97,1.741a3.03,3.03,0,0,0-1.5,2.608v3.165A.336.336,0,0,0,33,27v2.688a.336.336,0,0,0,.336.336h4.7a.336.336,0,0,0,.336-.336V27a.336.336,0,0,0-.336-.336v-.739a1.021,1.021,0,0,1,.336-.753l2.272-2.019a1.657,1.657,0,0,0,.511-.823l1.458-5.454a1.329,1.329,0,0,0,.047-.349,1.35,1.35,0,0,0-.682-1.166Zm-2-.3a.71.71,0,0,1,.8-.538.672.672,0,0,1,.534.655v.007a1.378,1.378,0,0,0-1.307,1.028l-.937,2.893a1.411,1.411,0,0,0-.45-.128ZM37.7,29.356H33.672V27.34H37.7ZM41.968,16.7l-1.462,5.457a1,1,0,0,1-.3.491l-2.275,2.019a1.7,1.7,0,0,0-.561,1.257v.739h-3.36V23.5a2.37,2.37,0,0,1,1.163-2.03l2.967-1.737a.672.672,0,0,1,.921.245.692.692,0,0,1,.067.511.672.672,0,0,1-.316.407L36.884,22.01a.336.336,0,0,0,.336.581l1.925-1.112a1.327,1.327,0,0,0,.628-.817,1.346,1.346,0,0,0-.134-1.018l-.02-.03,1.038-3.2a.71.71,0,0,1,.8-.538.672.672,0,0,1,.534.655A.579.579,0,0,1,41.968,16.7Z" transform="translate(-20.424 -7.735)" fill="#dfb04b"/>
    <path id="Path_5799" data-name="Path 5799" d="M11.568,26.67V23.5a3.03,3.03,0,0,0-1.5-2.608L7.1,19.153c-.02-.01-.044-.017-.064-.027L5.57,14.9a1.38,1.38,0,0,0-1.589-1.022,1.351,1.351,0,0,0-1.069,1.314,1.538,1.538,0,0,0,.01.178,1.35,1.35,0,0,0-.682,1.166,1.486,1.486,0,0,0,.044.349l1.462,5.45a1.652,1.652,0,0,0,.511.827l2.268,2.019a1.012,1.012,0,0,1,.339.753v.739a.336.336,0,0,0-.336.336v2.688a.336.336,0,0,0,.336.336h4.7a.336.336,0,0,0,.336-.336V27.006A.336.336,0,0,0,11.568,26.67ZM3.584,15.188a.672.672,0,0,1,.531-.655.726.726,0,0,1,.813.561l1.351,3.894a1.411,1.411,0,0,0-.45.128L4.9,16.24a1.394,1.394,0,0,0-1.314-1.045Zm3.387,9.486L4.7,22.654a1,1,0,0,1-.3-.494L2.932,16.707a.713.713,0,0,1-.02-.175.672.672,0,0,1,.531-.655.72.72,0,0,1,.81.554l1.032,3.185-.02.03a1.346,1.346,0,0,0-.134,1.018,1.327,1.327,0,0,0,.628.817l1.925,1.112a.336.336,0,0,0,.336-.581L6.094,20.9a.672.672,0,0,1-.316-.407.692.692,0,0,1,.067-.511.672.672,0,0,1,.917-.249l2.97,1.741A2.37,2.37,0,0,1,10.9,23.5V26.67H7.536v-.739A1.69,1.69,0,0,0,6.971,24.674Zm4.261,4.684H7.2V27.342h4.032Z" transform="translate(0 -7.737)" fill="#dfb04b"/>
    <path id="Path_5800" data-name="Path 5800" d="M25.42,3.184a3.358,3.358,0,0,0-4.754,0h0a3.36,3.36,0,0,0-4.753,4.749l4.516,4.516a.336.336,0,0,0,.475,0l4.516-4.516a3.362,3.362,0,0,0,0-4.75Zm-4.754,8.553L16.388,7.459a2.688,2.688,0,0,1,1.9-4.588,2.66,2.66,0,0,1,1.9.789l.239.239a.336.336,0,0,0,.475,0l.239-.239a2.687,2.687,0,0,1,3.8,3.8Z" transform="translate(-8.427)" fill="#dfb04b"/>
  </g>
</svg>
