<svg xmlns="http://www.w3.org/2000/svg" width="20" height="19.999" viewBox="0 0 20 19.999">
  <g id="heat-wave" transform="translate(-0.984 -0.999)">
    <path id="Path_6199" data-name="Path 6199" d="M20.018,16.4V8.417a1.609,1.609,0,0,0-2.976-.852l-.021-.021a.323.323,0,0,0-.228-.095h-.645a.322.322,0,0,0-.228.094l-.873.873H14.024L12.6,6.994V5.515a.322.322,0,0,0-.094-.228L10.988,3.768v-.7l1.328-1.327a9.339,9.339,0,0,1,6.946,4.892l.57-.3A10,10,0,0,0,6,2.332l.323.559A9.3,9.3,0,0,1,8.73,1.923V2.8L7.535,4a.323.323,0,0,0-.095.228V5.7L5.922,7.222a.323.323,0,0,0-.095.228v.968a.322.322,0,0,0,.094.228L7.44,10.163v.7l-1.1,1.1H3.7l-.873-.873A.323.323,0,0,0,2.6,11H1.634A9.353,9.353,0,0,1,2.881,6.328l-.559-.323A10,10,0,0,0,16.1,19.584a2.568,2.568,0,0,0,1.788,1.363A2.685,2.685,0,0,0,18.4,21,2.58,2.58,0,0,0,20.018,16.4ZM2.468,11.643l.873.873a.323.323,0,0,0,.228.095h2.9a.322.322,0,0,0,.228-.094l1.29-1.29A.323.323,0,0,0,8.085,11V10.03A.322.322,0,0,0,7.99,9.8L6.472,8.284v-.7L7.99,6.065a.323.323,0,0,0,.095-.228V4.358l1.2-1.2a.323.323,0,0,0,.095-.228V1.788a9.386,9.386,0,0,1,1.613-.144c.166,0,.33.008.494.017L10.437,2.706a.323.323,0,0,0-.095.228V3.9a.322.322,0,0,0,.094.228l1.518,1.518V7.127a.322.322,0,0,0,.094.228l1.613,1.613a.323.323,0,0,0,.228.095h1.29a.322.322,0,0,0,.228-.094l.873-.873h.378l.151.151a1.585,1.585,0,0,0-.017.172v6.317l-.779.779h-.7l-.873-.873a.323.323,0,0,0-.228-.095H12.278a.322.322,0,0,0-.228.094l-1.2,1.2h-.512a.322.322,0,0,0-.228.094l-.873.873H8.864L7.345,15.285a.323.323,0,0,0-.228-.095H5.182a.322.322,0,0,0-.228.094L3.563,16.676a9.3,9.3,0,0,1-1.9-5.034Zm8.519,8.708a9.332,9.332,0,0,1-7.014-3.175l1.342-1.34H6.984L8.5,17.354a.323.323,0,0,0,.228.095h.645a.322.322,0,0,0,.228-.094l.873-.873h.512a.322.322,0,0,0,.228-.094l1.2-1.2h1.668l.873.873a.323.323,0,0,0,.228.094h.968a.322.322,0,0,0,.228-.094l.417-.417V16.4a2.57,2.57,0,0,0-.922,2.5c0,.019.011.038.015.057A9.324,9.324,0,0,1,10.988,20.351Zm8.648-.441a1.956,1.956,0,0,1-1.621.4A1.935,1.935,0,0,1,17.3,16.83a.323.323,0,0,0,.138-.265V8.417a.968.968,0,1,1,1.935,0v.645h-.968v.645h.968v.645h-.968V11h.968v.645h-.968v.645h.968v.645h-1.29v.645h1.29v.645h-.968v.645h.968v.645h-.968v.645h.968v.406a.323.323,0,0,0,.138.264,1.935,1.935,0,0,1,.124,3.081Z" transform="translate(0)" fill="#dfb04b"/>
    <path id="Path_6200" data-name="Path 6200" d="M26.329,28.934a.323.323,0,0,0,.172.226l1.29.645a.323.323,0,0,0,.144.032h1.29a.323.323,0,0,0,.306-.424l-.258-.778.5-.5a.323.323,0,0,0,.094-.228v-1.29a.323.323,0,0,0-.121-.252l-1.613-1.29a.323.323,0,0,0-.49.108l-.606,1.213-.9.6a.323.323,0,0,0-.137.333Zm1.14-2.053a.328.328,0,0,0,.11-.124l.466-.933,1.18.942v1l-.551.551a.323.323,0,0,0-.078.33l.181.543h-.766l-1.081-.541-.249-1.246Z" transform="translate(-16.947 -16.26)" fill="#dfb04b"/>
    <path id="Path_6201" data-name="Path 6201" d="M52.29,51a1.29,1.29,0,1,0,1.29,1.29A1.29,1.29,0,0,0,52.29,51Zm0,1.935a.645.645,0,1,1,.645-.645A.645.645,0,0,1,52.29,52.935Z" transform="translate(-33.884 -33.874)" fill="#dfb04b"/>
    <path id="Path_6202" data-name="Path 6202" d="M6.29,7.58A1.29,1.29,0,1,0,5,6.29,1.29,1.29,0,0,0,6.29,7.58Zm0-1.935a.645.645,0,1,1-.645.645A.645.645,0,0,1,6.29,5.645Z" transform="translate(-2.721 -2.711)" fill="#dfb04b"/>
    <rect id="Rectangle_1139" data-name="Rectangle 1139" width="0.968" height="0.645" transform="translate(5.182 3.257)" fill="#dfb04b"/>
    <rect id="Rectangle_1140" data-name="Rectangle 1140" width="0.968" height="0.645" transform="translate(0.989 3.257)" fill="#dfb04b"/>
    <rect id="Rectangle_1141" data-name="Rectangle 1141" width="0.645" height="0.968" transform="translate(3.247 5.192)" fill="#dfb04b"/>
    <rect id="Rectangle_1142" data-name="Rectangle 1142" width="0.645" height="0.968" transform="translate(3.247 0.999)" fill="#dfb04b"/>
    <rect id="Rectangle_1143" data-name="Rectangle 1143" width="0.912" height="0.645" transform="translate(4.632 2.061) rotate(-45)" fill="#dfb04b"/>
    <rect id="Rectangle_1144" data-name="Rectangle 1144" width="0.645" height="0.912" transform="translate(1.406 1.872) rotate(-45)" fill="#dfb04b"/>
    <rect id="Rectangle_1145" data-name="Rectangle 1145" width="0.645" height="0.912" transform="translate(4.632 5.098) rotate(-45)" fill="#dfb04b"/>
    <rect id="Rectangle_1146" data-name="Rectangle 1146" width="0.912" height="0.645" transform="translate(1.406 5.286) rotate(-45)" fill="#dfb04b"/>
  </g>
</svg>
