<svg xmlns="http://www.w3.org/2000/svg" width="116.134" height="116.133" viewBox="0 0 116.134 116.133">
  <g id="icon_gioithieu" transform="translate(-7598 -3787.867)">
    <g id="placeholder" transform="translate(7598 3787.867)">
      <path id="Path_2271" data-name="Path 2271" d="M116.134,58.067A58.074,58.074,0,0,1,64.7,115.759a58.71,58.71,0,0,1-6.629.375,58.067,58.067,0,1,1,58.067-58.067Zm0,0" transform="translate(0 -0.001)" fill="#2ba1cf"/>
      <path id="Path_2272" data-name="Path 2272" d="M150.275,467.946c0,.09,0,.183-.007.272a58.712,58.712,0,0,1-6.629.375,57.784,57.784,0,0,1-32.963-10.258,43.3,43.3,0,0,1,14.95-2.476c13.614,0,24.649,5.41,24.649,12.087Zm0,0" transform="translate(-85.572 -352.46)" opacity="0.1"/>
      <path id="Path_2273" data-name="Path 2273" d="M347.537,266.711c0-4.873-8.057-8.824-18-8.824s-17.994,3.951-17.994,8.824,8.057,8.825,17.994,8.825S347.537,271.585,347.537,266.711Zm0,0" transform="translate(-240.881 -199.392)" opacity="0.1"/>
      <path id="Path_2274" data-name="Path 2274" d="M331.179,24.055c-.686-32.072-48.854-32.072-49.539,0q-.012.525-.012,1.052a48.317,48.317,0,0,0,24.78,42.213,48.315,48.315,0,0,0,24.78-42.213q0-.528-.011-1.052Zm0,0" transform="translate(-217.749 -0.001)" fill="#f9d366"/>
      <path id="Path_2275" data-name="Path 2275" d="M347.869,46.185a17.857,17.857,0,1,1-17.856-17.857,17.819,17.819,0,0,1,17.856,17.857Zm0,0" transform="translate(-241.352 -21.903)" fill="#dde8ed"/>
      <path id="Path_2276" data-name="Path 2276" d="M332.742,62.053V47.539A12.932,12.932,0,0,1,345.68,34.6a12.937,12.937,0,0,1,12.938,12.938V62.053" transform="translate(-257.268 -26.753)" fill="#3d4159"/>
      <path id="Path_2277" data-name="Path 2277" d="M338.065,48.109c0,5.134,3.006,11.074,4.657,13.947h-9.979V47.542a12.931,12.931,0,0,1,12.843-12.937C341.608,34.7,338.065,41.086,338.065,48.109Zm0,0" transform="translate(-257.269 -26.756)" fill="#2a2f4f"/>
      <path id="Path_2278" data-name="Path 2278" d="M326.488,108.181a3.194,3.194,0,0,1-2.682,3.152,3.245,3.245,0,0,1-.511.041,3.193,3.193,0,1,1,0-6.386,3.142,3.142,0,0,1,.511.042,3.193,3.193,0,0,1,2.682,3.152Zm0,0" transform="translate(-247.495 -81.174)" fill="#f6caae"/>
      <g id="Group_649" data-name="Group 649" transform="translate(74.658 15.682)">
        <path id="Path_2279" data-name="Path 2279" d="M337.672,108.323a3.194,3.194,0,0,1-2.682,3.152,11.941,11.941,0,0,1,0-6.3A3.193,3.193,0,0,1,337.672,108.323Zm0,0" transform="translate(-333.338 -96.998)" fill="#eab599"/>
        <path id="Path_2280" data-name="Path 2280" d="M331.431,115.176a1.141,1.141,0,1,1-1.141-1.141A1.141,1.141,0,0,1,331.431,115.176Zm0,0" transform="translate(-329.148 -103.851)" fill="#eab599"/>
        <path id="Path_2281" data-name="Path 2281" d="M357.483,76.385V87.362a11.839,11.839,0,0,1-6.293,3.13l-.059.01a11.64,11.64,0,0,1-1.848.144A11.881,11.881,0,0,1,337.4,78.765V74.241a11.891,11.891,0,0,1,.122-1.706,7.528,7.528,0,0,0,9.461-.61,6.724,6.724,0,0,0,1.785-2.789,7.843,7.843,0,0,0,2.453,4.894,8.767,8.767,0,0,0,6.259,2.353Zm0,0" transform="translate(-335.53 -69.137)" fill="#eab599"/>
      </g>
      <path id="Path_2282" data-name="Path 2282" d="M370.1,76.385V87.362a11.839,11.839,0,0,1-6.293,3.13l-.059.01a11.882,11.882,0,0,1-10.029-11.736V74.241c0-.12,0-.24.006-.36a7.439,7.439,0,0,0,5.877-1.955,6.726,6.726,0,0,0,1.786-2.789,7.842,7.842,0,0,0,2.452,4.894A8.767,8.767,0,0,0,370.1,76.385Zm0,0" transform="translate(-273.484 -53.455)" fill="#f6caae"/>
      <path id="Path_2283" data-name="Path 2283" d="M404.458,100.438a1.973,1.973,0,1,0-3.946,0" transform="translate(-309.666 -76.131)" fill="#eab599"/>
      <path id="Path_2284" data-name="Path 2284" d="M365.606,100.438a1.973,1.973,0,1,0-3.945,0" transform="translate(-279.628 -76.131)" fill="#eab599"/>
      <path id="Path_2285" data-name="Path 2285" d="M367.113,106.273a1.348,1.348,0,1,1-1.348-1.348,1.348,1.348,0,0,1,1.348,1.348Zm0,0" transform="translate(-281.76 -81.126)" fill="#3d4159"/>
      <path id="Path_2286" data-name="Path 2286" d="M405.964,106.273a1.348,1.348,0,1,1-1.348-1.348,1.348,1.348,0,0,1,1.348,1.348Zm0,0" transform="translate(-311.798 -81.126)" fill="#3d4159"/>
      <path id="Path_2287" data-name="Path 2287" d="M384.558,121.862h-2.7a.582.582,0,0,1,0-1.163h2.7a.582.582,0,0,1,0,1.163Zm0,0" transform="translate(-294.798 -93.322)" fill="#eab599"/>
      <path id="Path_2288" data-name="Path 2288" d="M378.977,136.114a6.009,6.009,0,0,1-2.9-.748.528.528,0,1,1,.509-.926,4.934,4.934,0,0,0,4.775,0,.528.528,0,0,1,.509.926,6,6,0,0,1-2.9.748Zm0,0" transform="translate(-290.565 -103.895)" fill="#eab599"/>
      <path id="Path_2289" data-name="Path 2289" d="M371.152,107.847a.578.578,0,1,1-.578-.578A.578.578,0,0,1,371.152,107.847Zm0,0" transform="translate(-286.073 -82.938)" fill="#fff"/>
      <path id="Path_2290" data-name="Path 2290" d="M410.3,107.847a.578.578,0,1,1-.578-.578A.578.578,0,0,1,410.3,107.847Zm0,0" transform="translate(-316.338 -82.938)" fill="#fff"/>
      <path id="Path_2291" data-name="Path 2291" d="M415.343,120.293a1.48,1.48,0,1,1-1.48-1.481A1.48,1.48,0,0,1,415.343,120.293Zm0,0" transform="translate(-318.845 -91.863)" fill="#eab599"/>
      <path id="Path_2292" data-name="Path 2292" d="M357.092,120.293a1.48,1.48,0,1,1-1.48-1.481A1.48,1.48,0,0,1,357.092,120.293Zm0,0" transform="translate(-273.808 -91.863)" fill="#eab599"/>
      <path id="Path_2293" data-name="Path 2293" d="M100.438,127.943c-.938-43.929-66.917-43.929-67.856,0q-.015.719-.015,1.442A66.182,66.182,0,0,0,66.51,187.206a66.183,66.183,0,0,0,33.943-57.821q0-.723-.015-1.442Zm0,0" transform="translate(-25.18 -73.449)" fill="#60b550"/>
      <path id="Path_2294" data-name="Path 2294" d="M123.3,158.26A24.459,24.459,0,1,1,98.842,133.8,24.406,24.406,0,0,1,123.3,158.26Zm0,0" transform="translate(-57.511 -103.452)" fill="#dde8ed"/>
      <path id="Path_2295" data-name="Path 2295" d="M90.873,255.19a4.608,4.608,0,1,1-4.608-4.608,4.7,4.7,0,0,1,.738.058A4.61,4.61,0,0,1,90.873,255.19Zm0,0" transform="translate(-63.135 -193.744)" fill="#f6caae"/>
      <path id="Path_2296" data-name="Path 2296" d="M107.013,255.392a4.609,4.609,0,0,1-3.87,4.549,17.229,17.229,0,0,1,0-9.1A4.609,4.609,0,0,1,107.013,255.392Zm0,0" transform="translate(-79.275 -193.946)" fill="#eab599"/>
      <path id="Path_2297" data-name="Path 2297" d="M98,265.283a1.647,1.647,0,1,1-1.647-1.647A1.647,1.647,0,0,1,98,265.283Zm0,0" transform="translate(-73.228 -203.838)" fill="#eab599"/>
      <path id="Path_2298" data-name="Path 2298" d="M242.137,255.19a4.608,4.608,0,1,0,4.608-4.608,4.705,4.705,0,0,0-.738.058A4.61,4.61,0,0,0,242.137,255.19Zm0,0" transform="translate(-187.215 -193.744)" fill="#f6caae"/>
      <path id="Path_2299" data-name="Path 2299" d="M242.137,255.392a4.609,4.609,0,0,0,3.87,4.549,17.229,17.229,0,0,0,0-9.1A4.609,4.609,0,0,0,242.137,255.392Zm0,0" transform="translate(-187.215 -193.946)" fill="#eab599"/>
      <path id="Path_2300" data-name="Path 2300" d="M140.915,172.876V179.4a17.146,17.146,0,0,1-14.394,16.923l-.084.014a16.958,16.958,0,0,1-2.668.207A17.145,17.145,0,0,1,106.625,179.4v-6.528A17.137,17.137,0,0,1,123.77,155.73h0a17.132,17.132,0,0,1,17.145,17.146Zm0,0" transform="translate(-82.44 -120.407)" fill="#eab599"/>
      <path id="Path_2301" data-name="Path 2301" d="M258.486,265.283a1.647,1.647,0,1,1-1.647-1.647A1.647,1.647,0,0,1,258.486,265.283Zm0,0" transform="translate(-197.308 -203.838)" fill="#eab599"/>
      <path id="Path_2302" data-name="Path 2302" d="M159.115,173.582v6.528a17.146,17.146,0,0,1-14.394,16.923l-.084.014a17.148,17.148,0,0,1-14.473-16.937v-6.528a17.148,17.148,0,0,1,14.477-16.938A17.148,17.148,0,0,1,159.115,173.582Zm0,0" transform="translate(-100.64 -121.114)" fill="#f6caae"/>
      <path id="Path_2303" data-name="Path 2303" d="M152.858,249.07a1.945,1.945,0,1,1-1.945-1.945A1.945,1.945,0,0,1,152.858,249.07Zm0,0" transform="translate(-115.179 -191.071)" fill="#3d4159"/>
      <path id="Path_2304" data-name="Path 2304" d="M202.2,249.07a1.945,1.945,0,1,1-1.945-1.945A1.945,1.945,0,0,1,202.2,249.07Zm0,0" transform="translate(-153.331 -191.071)" fill="#3d4159"/>
      <path id="Path_2305" data-name="Path 2305" d="M158.686,251.346a.833.833,0,1,1-.833-.834A.833.833,0,0,1,158.686,251.346Zm0,0" transform="translate(-121.404 -193.69)" fill="#fff"/>
      <path id="Path_2306" data-name="Path 2306" d="M208.452,251.346a.833.833,0,1,1-.833-.834A.833.833,0,0,1,208.452,251.346Zm0,0" transform="translate(-159.882 -193.69)" fill="#fff"/>
      <path id="Path_2307" data-name="Path 2307" d="M174.67,268.209h-3.89a.839.839,0,1,1,0-1.677h3.89a.839.839,0,1,1,0,1.677Zm0,0" transform="translate(-131.395 -206.076)" fill="#eab599"/>
      <path id="Path_2308" data-name="Path 2308" d="M166.62,288.773a8.667,8.667,0,0,1-4.18-1.079.763.763,0,1,1,.735-1.336,7.118,7.118,0,0,0,6.89,0,.762.762,0,1,1,.735,1.336A8.664,8.664,0,0,1,166.62,288.773Zm0,0" transform="translate(-125.289 -221.332)" fill="#eab599"/>
      <path id="Path_2309" data-name="Path 2309" d="M140.918,158.146v6.689h-3.191V159.6l-23.033-4.28-4.874-.906v10.424h-3.191v-6.689a13.8,13.8,0,0,1,13.8-13.8h6.686c.182,0,.363,0,.545.012A13.8,13.8,0,0,1,140.918,158.146Zm0,0" transform="translate(-82.443 -111.603)" fill="#2a2f4f"/>
      <path id="Path_2310" data-name="Path 2310" d="M168.408,158.185v6.689h-3.191v-5.237l-23.033-4.28a13.215,13.215,0,0,1,26.225,2.829Zm0,0" transform="translate(-109.933 -111.642)" fill="#3d4159"/>
    </g>
    <path id="Path_2518" data-name="Path 2518" d="M8610.389,926.462s36.5-2.334,46.17-42.3" transform="translate(-970.993 2975.135)" fill="none" stroke="#fff" stroke-width="2" stroke-dasharray="6"/>
    <path id="Path_2519" data-name="Path 2519" d="M0,0H8.341V8.127" transform="translate(7677.81 3864.136) rotate(-30)" fill="none" stroke="#fff" stroke-width="2"/>
    <g id="greece" transform="translate(7668.781 3794.406)">
      <circle id="Ellipse_431" data-name="Ellipse 431" cx="18" cy="18" r="18" transform="translate(-0.215 -0.406)" fill="#f5f5f5"/>
      <g id="Group_1727" data-name="Group 1727" transform="translate(0.061 -0.055)">
        <path id="Path_5830" data-name="Path 5830" d="M94.222,454.4h22.555a17.844,17.844,0,0,1-22.555,0Z" transform="translate(-87.687 -422.724)" fill="#0033a0" fill-rule="evenodd"/>
        <path id="Path_5831" data-name="Path 5831" d="M87.064,4.012H75.787V6.175H70.552V.778A17.873,17.873,0,0,1,87.064,4.012ZM66.341,6.175V2.7a17.939,17.939,0,0,0-4.058,3.476Z" transform="translate(-57.975 0.003)" fill="#0033a0" fill-rule="evenodd"/>
        <path id="Path_5832" data-name="Path 5832" d="M23.363,362.956H55.8a17.864,17.864,0,0,1-2.713,4.211H26.076a17.864,17.864,0,0,1-2.713-4.211Z" transform="translate(-21.768 -337.655)" fill="#0033a0" fill-rule="evenodd"/>
        <path id="Path_5833" data-name="Path 5833" d="M272.217,92.843H256V88.632h13.5A17.866,17.866,0,0,1,272.217,92.843Z" transform="translate(-238.188 -82.453)" fill="#0033a0" fill-rule="evenodd"/>
        <path id="Path_5834" data-name="Path 5834" d="M.481,271.516H36.1a17.793,17.793,0,0,1-.765,4.211H1.246a17.793,17.793,0,0,1-.765-4.211Z" transform="translate(-0.481 -252.589)" fill="#0033a0" fill-rule="evenodd"/>
        <path id="Path_5835" data-name="Path 5835" d="M8.847,151.207v4.211H.481a17.721,17.721,0,0,1,1.594-6.374H8.847Zm4.211-2.163v6.374H36.1a17.794,17.794,0,0,0-.765-4.211H18.293v-2.163Z" transform="translate(-0.481 -138.654)" fill="#0033a0" fill-rule="evenodd"/>
      </g>
    </g>
  </g>
</svg>
