<svg xmlns="http://www.w3.org/2000/svg" width="47.76" height="55" viewBox="0 0 47.76 55">
  <g id="increase" transform="translate(-33.7)">
    <path id="Path_4909" data-name="Path 4909" d="M135.734,29.37a14.685,14.685,0,1,0-14.685-14.685A14.7,14.7,0,0,0,135.734,29.37Zm0-27.756a13.071,13.071,0,1,1-13.071,13.071A13.086,13.086,0,0,1,135.734,1.614Z" transform="translate(-77.966)" fill="#dfb04b"/>
    <path id="Path_4910" data-name="Path 4910" d="M169.509,59.081a10.62,10.62,0,1,0-7.134-18.489.807.807,0,0,0,1.085,1.2,8.986,8.986,0,1,1-1.871,2.38.807.807,0,0,0-1.419-.771,10.624,10.624,0,0,0,9.338,15.683Z" transform="translate(-111.741 -33.775)" fill="#dfb04b"/>
    <path id="Path_4911" data-name="Path 4911" d="M227.729,83.744a1.732,1.732,0,0,1-1.681-1.02.808.808,0,0,0-1.566.4h0l0,.015a.8.8,0,0,0,.037.111,3.225,3.225,0,0,0,2.511,2.031v1.074a.807.807,0,1,0,1.615,0V85.3a3.088,3.088,0,0,0,1.616-.778,3.2,3.2,0,0,0,.964-2.3c0-.818-.321-2.756-3.292-3.084a1.77,1.77,0,0,1-1.248-.557,1.127,1.127,0,0,1-.234-.681,1.325,1.325,0,0,1,1.387-1.387,1.434,1.434,0,0,1,1.309.685.808.808,0,1,0,1.469-.67h0A2.965,2.965,0,0,0,228.648,75V73.916a.807.807,0,0,0-1.615,0V75a2.944,2.944,0,0,0-2.194,2.911,2.911,2.911,0,0,0,2.92,2.843c1.855.2,1.855,1.164,1.855,1.479a1.588,1.588,0,0,1-.456,1.122A1.849,1.849,0,0,1,227.729,83.744Z" transform="translate(-170.267 -65.256)" fill="#dfb04b"/>
    <path id="Path_4912" data-name="Path 4912" d="M73.081,345.882a.807.807,0,0,0-1.176,0l-5.484,5.83a.807.807,0,0,0,.588,1.36h1.585V356a.807.807,0,1,0,1.615,0v-3.739a.807.807,0,0,0-.807-.807h-.525l3.616-3.844,3.616,3.844h-.525a.807.807,0,0,0-.807.807v9.621H70.209v-2.653a.807.807,0,1,0-1.615,0v3.46a.807.807,0,0,0,.807.807h6.183a.807.807,0,0,0,.807-.807v-9.621h1.585a.807.807,0,0,0,.588-1.36Z" transform="translate(-29.011 -308.5)" fill="#dfb04b"/>
    <path id="Path_4913" data-name="Path 4913" d="M206.072,294.182a.807.807,0,0,0-1.176,0l-5.483,5.83a.807.807,0,0,0,.588,1.36h1.585v15.174a.807.807,0,0,0,.807.807h6.183a.807.807,0,0,0,.807-.807V301.372h1.585a.807.807,0,0,0,.588-1.36Zm2.5,5.576a.807.807,0,0,0-.807.807v15.174H203.2V300.565a.807.807,0,0,0-.807-.807h-.525l3.616-3.844,3.616,3.844h-.524Z" transform="translate(-147.716 -262.354)" fill="#dfb04b"/>
    <path id="Path_4914" data-name="Path 4914" d="M339.063,246.348a.807.807,0,0,0-1.176,0l-5.484,5.83a.807.807,0,0,0,.588,1.36h1.585v4.926a.807.807,0,0,0,1.615,0v-5.733a.807.807,0,0,0-.807-.807h-.525l3.616-3.844,3.616,3.844h-.525a.807.807,0,0,0-.807.807v20.313h-4.568v-11.35a.807.807,0,0,0-1.615,0v12.158a.807.807,0,0,0,.807.807h6.183a.807.807,0,0,0,.807-.807V253.538h1.585a.807.807,0,0,0,.588-1.36Z" transform="translate(-266.421 -219.658)" fill="#dfb04b"/>
    <path id="Path_4915" data-name="Path 4915" d="M40.049,132.688a.807.807,0,0,0-.807-.807H34.507a.807.807,0,1,0,0,1.615h4.735A.807.807,0,0,0,40.049,132.688Z" transform="translate(0 -117.714)" fill="#dfb04b"/>
    <path id="Path_4916" data-name="Path 4916" d="M76.757,197.906l-1.684.66a.807.807,0,1,0,.589,1.5l1.684-.66a.807.807,0,1,0-.589-1.5Z" transform="translate(-36.471 -176.597)" fill="#dfb04b"/>
    <path id="Path_4917" data-name="Path 4917" d="M75.073,61.325l1.684.66a.807.807,0,1,0,.589-1.5l-1.684-.66a.807.807,0,1,0-.589,1.5Z" transform="translate(-36.471 -53.346)" fill="#dfb04b"/>
    <path id="Path_4918" data-name="Path 4918" d="M424.737,131.881H420a.807.807,0,1,0,0,1.615h4.735a.807.807,0,1,0,0-1.615Z" transform="translate(-344.084 -117.714)" fill="#dfb04b"/>
    <path id="Path_4919" data-name="Path 4919" d="M407.244,199.411l1.684.66a.807.807,0,1,0,.589-1.5l-1.684-.66a.807.807,0,0,0-.589,1.5Z" transform="translate(-332.959 -176.599)" fill="#dfb04b"/>
    <path id="Path_4920" data-name="Path 4920" d="M407.539,62.04a.8.8,0,0,0,.294-.056l1.684-.66a.807.807,0,0,0-.589-1.5l-1.684.66a.807.807,0,0,0,.295,1.559Z" transform="translate(-332.959 -53.346)" fill="#dfb04b"/>
  </g>
</svg>
