<svg xmlns="http://www.w3.org/2000/svg" width="36.235" height="40" viewBox="0 0 36.235 40">
  <g id="learning" transform="translate(-24.064)">
    <path id="Path_5781" data-name="Path 5781" d="M58.981,169.261H56.6v-.268a1.21,1.21,0,0,0-1.209-1.208h-4.7a.587.587,0,0,0,0,1.174h4.7a.035.035,0,0,1,.035.035v7.154a.587.587,0,1,0,1.174,0v-5.713h2.384a.144.144,0,0,1,.144.144V191.05a2.438,2.438,0,0,1-2.435,2.435H27.673a2.438,2.438,0,0,1-2.435-2.435V170.579a.144.144,0,0,1,.144-.144h2.462V190.5a1.5,1.5,0,0,0,1.5,1.5H55.1a1.5,1.5,0,0,0,1.5-1.5V178.651a.587.587,0,0,0-1.174,0v8.444H45.93a4.284,4.284,0,0,0-3.123,1.351v-7.59a.587.587,0,0,0-1.174,0v7.59a4.284,4.284,0,0,0-3.123-1.35H35.844a.587.587,0,1,0,0,1.174h2.666a3.128,3.128,0,0,1,3.072,2.562H29.344a.327.327,0,0,1-.327-.327v-2.235h4.324a.587.587,0,1,0,0-1.174H29.017v-18.1a.035.035,0,0,1,.035-.035h4.7a.587.587,0,1,0,0-1.174h-4.7a1.21,1.21,0,0,0-1.209,1.209v.268H25.381a1.319,1.319,0,0,0-1.317,1.317V191.05a3.613,3.613,0,0,0,3.609,3.609H56.69A3.613,3.613,0,0,0,60.3,191.05V170.579a1.319,1.319,0,0,0-1.317-1.317ZM45.93,188.268h9.493V190.5a.327.327,0,0,1-.327.327H42.859a3.128,3.128,0,0,1,3.072-2.562Z" transform="translate(0 -154.658)" fill="#daa54b"/>
    <path id="Path_5782" data-name="Path 5782" d="M149.879,8.233a.587.587,0,0,0,.639-.529A7.217,7.217,0,1,1,163.6,12.543l-.014.021-3.755,5.846a.587.587,0,0,0-.093.317v.76a.28.28,0,0,1-.28.28h-.038l.374-6.343h.668a1.737,1.737,0,0,0,1.735-1.735v-.071a1.735,1.735,0,0,0-3.466-.1l-.043.734h-2.058l-.043-.734a1.735,1.735,0,0,0-3.466.1v.071a1.737,1.737,0,0,0,1.735,1.735h.668l.374,6.339a.279.279,0,0,1-.24-.276v-.76a.587.587,0,0,0-.093-.317l-3.755-5.846-.014-.021a7.149,7.149,0,0,1-1.13-2.53.587.587,0,1,0-1.144.263,8.318,8.318,0,0,0,1.307,2.932l3.655,5.69v.588a1.455,1.455,0,0,0,.867,1.329v.992a1.9,1.9,0,0,0,1.894,1.894h.908a1.9,1.9,0,0,0,1.894-1.894v-.992a1.455,1.455,0,0,0,.867-1.329V18.9l3.655-5.69A8.39,8.39,0,1,0,149.35,7.594a.587.587,0,0,0,.529.639Zm10.028,3.352a.561.561,0,0,1,1.121.033v.071a.562.562,0,0,1-.561.561h-.6Zm-5.047.665a.562.562,0,0,1-.561-.561v-.071a.561.561,0,0,1,1.121-.033l.039.665Zm3.763,1.174-.374,6.343h-1.172l-.374-6.343Zm.253,8.384a.721.721,0,0,1-.72.72h-.908a.721.721,0,0,1-.72-.72V20.94h2.348v.867Z" transform="translate(-115.482)" fill="#daa54b"/>
    <path id="Path_5783" data-name="Path 5783" d="M380.6,29.881a.585.585,0,0,0,.387-.146l1.28-1.124a.587.587,0,1,0-.774-.882l-1.28,1.124a.587.587,0,0,0,.387,1.028Z" transform="translate(-328.099 -25.426)" fill="#daa54b"/>
    <path id="Path_5784" data-name="Path 5784" d="M380.21,90.075l1.28,1.124a.587.587,0,0,0,.774-.882l-1.28-1.124a.587.587,0,0,0-.774.882Z" transform="translate(-328.099 -82.081)" fill="#daa54b"/>
    <path id="Path_5785" data-name="Path 5785" d="M101.1,28.61l1.28,1.124a.587.587,0,1,0,.774-.882l-1.28-1.124a.587.587,0,0,0-.774.882Z" transform="translate(-70.827 -25.425)" fill="#daa54b"/>
    <path id="Path_5786" data-name="Path 5786" d="M101.491,91.346a.585.585,0,0,0,.387-.146l1.28-1.124a.587.587,0,0,0-.774-.882l-1.28,1.124a.587.587,0,0,0,.387,1.028Z" transform="translate(-70.828 -82.082)" fill="#daa54b"/>
    <path id="Path_5787" data-name="Path 5787" d="M107.856,253.241a.587.587,0,0,0-.587-.587h-5.78a.587.587,0,1,0,0,1.174h5.78A.587.587,0,0,0,107.856,253.241Z" transform="translate(-70.827 -232.887)" fill="#daa54b"/>
    <path id="Path_5788" data-name="Path 5788" d="M121.545,290.8h-6.508a.587.587,0,0,0,0,1.174h6.508a.587.587,0,0,0,0-1.174Z" transform="translate(-83.316 -268.054)" fill="#daa54b"/>
    <path id="Path_5789" data-name="Path 5789" d="M121.545,327.346h-6.508a.587.587,0,1,0,0,1.174h6.508a.587.587,0,1,0,0-1.174Z" transform="translate(-83.316 -301.736)" fill="#daa54b"/>
    <path id="Path_5790" data-name="Path 5790" d="M121.545,363.887h-6.508a.587.587,0,1,0,0,1.174h6.508a.587.587,0,1,0,0-1.174Z" transform="translate(-83.316 -335.418)" fill="#daa54b"/>
    <path id="Path_5791" data-name="Path 5791" d="M329.449,253.241a.587.587,0,0,0-.587-.587h-5.78a.587.587,0,1,0,0,1.174h5.78A.587.587,0,0,0,329.449,253.241Z" transform="translate(-275.084 -232.887)" fill="#daa54b"/>
    <path id="Path_5792" data-name="Path 5792" d="M306.741,290.8h-6.508a.587.587,0,0,0,0,1.174h6.508a.587.587,0,1,0,0-1.174Z" transform="translate(-254.023 -268.054)" fill="#daa54b"/>
    <path id="Path_5793" data-name="Path 5793" d="M306.741,327.346h-6.508a.587.587,0,1,0,0,1.174h6.508a.587.587,0,1,0,0-1.174Z" transform="translate(-254.023 -301.736)" fill="#daa54b"/>
    <path id="Path_5794" data-name="Path 5794" d="M306.741,363.887h-6.508a.587.587,0,0,0,0,1.174h6.508a.587.587,0,1,0,0-1.174Z" transform="translate(-254.023 -335.418)" fill="#daa54b"/>
  </g>
</svg>
