<svg id="medal" xmlns="http://www.w3.org/2000/svg" width="41.179" height="54.311" viewBox="0 0 41.179 54.311">
  <g id="Group_132" data-name="Group 132" transform="translate(5.09 5.1)">
    <g id="Group_131" data-name="Group 131">
      <path id="Path_530" data-name="Path 530" d="M132.311,49.749a15.466,15.466,0,0,0-19.188,23.289.856.856,0,0,0,1.351-1.051,13.755,13.755,0,0,1,17.066-20.71.856.856,0,1,0,.772-1.528Z" transform="translate(-109.878 -48.082)" fill="#dfb04b"/>
    </g>
  </g>
  <g id="Group_134" data-name="Group 134" transform="translate(10.736 13.133)">
    <g id="Group_133" data-name="Group 133" transform="translate(0)">
      <path id="Path_531" data-name="Path 531" d="M186.73,124.277a.856.856,0,0,0-1.528.772,13.755,13.755,0,0,1-20.711,17.063.856.856,0,1,0-1.051,1.351,15.467,15.467,0,0,0,23.291-19.185Z" transform="translate(-163.109 -123.806)" fill="#dfb04b"/>
    </g>
  </g>
  <g id="Group_136" data-name="Group 136" transform="translate(29.357 8.763)">
    <g id="Group_135" data-name="Group 135" transform="translate(0)">
      <path id="Path_532" data-name="Path 532" d="M341.436,84.186c-.212-.24-.435-.477-.662-.7s-.464-.45-.7-.662a.856.856,0,0,0-1.134,1.283c.214.189.425.387.627.59s.4.414.59.627a.856.856,0,0,0,1.283-1.134Z" transform="translate(-338.647 -82.605)" fill="#dfb04b"/>
    </g>
  </g>
  <g id="Group_138" data-name="Group 138" transform="translate(0 0)">
    <g id="Group_137" data-name="Group 137" transform="translate(0 0)">
      <path id="Path_533" data-name="Path 533" d="M102.65,22.107a2.9,2.9,0,0,0,0-3.036l-1.126-1.846a1.2,1.2,0,0,1-.161-.814l.336-2.132a2.9,2.9,0,0,0-1.165-2.811L98.788,10.2a1.2,1.2,0,0,1-.462-.69l-.508-2.1A2.9,2.9,0,0,0,95.67,5.261l-2.1-.508a1.2,1.2,0,0,1-.69-.462L91.61,2.545A2.9,2.9,0,0,0,88.8,1.38l-2.133.336a1.2,1.2,0,0,1-.813-.161L84.006.428a2.9,2.9,0,0,0-3.035,0L79.124,1.554a1.2,1.2,0,0,1-.814.161L76.177,1.38a2.9,2.9,0,0,0-2.811,1.165L72.1,4.29a1.205,1.205,0,0,1-.69.462l-2.1.508a2.9,2.9,0,0,0-2.148,2.148l-.508,2.1a1.2,1.2,0,0,1-.462.69l-1.745,1.27a2.9,2.9,0,0,0-1.165,2.811l.336,2.133a1.2,1.2,0,0,1-.161.814l-1.126,1.847a2.9,2.9,0,0,0,0,3.035l1.126,1.847a1.2,1.2,0,0,1,.161.814L63.278,26.9a2.9,2.9,0,0,0,1.165,2.811l1.745,1.269a1.2,1.2,0,0,1,.462.69l.508,2.1a2.9,2.9,0,0,0,2.148,2.148l.877.212-5.935,13.24a.856.856,0,0,0,.883,1.2L69.906,50l2.751,3.945a.856.856,0,0,0,.7.366c.027,0,.054,0,.08,0a.856.856,0,0,0,.7-.5L80.2,40.283l.768.468a2.9,2.9,0,0,0,3.035,0l.8-.485,6.069,13.539a.856.856,0,0,0,.7.5c.027,0,.054,0,.08,0a.856.856,0,0,0,.7-.366L95.1,50l4.776.571a.856.856,0,0,0,.883-1.2L94.825,36.124l.844-.2a2.9,2.9,0,0,0,2.148-2.148l.508-2.1a1.2,1.2,0,0,1,.462-.69l1.745-1.27A2.9,2.9,0,0,0,101.7,26.9l-.336-2.133a1.2,1.2,0,0,1,.161-.814ZM73.2,51.726,71.016,48.6a.855.855,0,0,0-.8-.36l-3.785.453,5.408-12.063a1.2,1.2,0,0,1,.261.26l1.27,1.745a2.941,2.941,0,0,0,.4.45l-2.846,6.349a.856.856,0,1,0,1.562.7l2.836-6.327a2.929,2.929,0,0,0,.855-.008l2.133-.336a1.2,1.2,0,0,1,.383,0Zm25.387-3.034L94.8,48.239a.855.855,0,0,0-.8.36l-2.18,3.127-5.5-12.265a1.205,1.205,0,0,1,.349,0L88.8,39.8a2.931,2.931,0,0,0,.889,0l2.838,6.332a.856.856,0,1,0,1.562-.7L91.23,39.06a2.947,2.947,0,0,0,.379-.426l1.269-1.745a1.2,1.2,0,0,1,.288-.281Zm2.6-27.475-1.126,1.847a2.919,2.919,0,0,0-.391,1.971l.336,2.133a1.2,1.2,0,0,1-.481,1.16L97.78,29.6a2.919,2.919,0,0,0-1.119,1.672l-.508,2.1a1.2,1.2,0,0,1-.887.887l-2.1.508a2.918,2.918,0,0,0-1.672,1.119l-1.269,1.745a1.2,1.2,0,0,1-1.16.481l-2.133-.336a2.919,2.919,0,0,0-1.971.391L83.114,39.29a1.2,1.2,0,0,1-1.253,0l-1.847-1.126a2.918,2.918,0,0,0-1.971-.391l-2.133.336a1.2,1.2,0,0,1-1.16-.481l-1.27-1.745a2.919,2.919,0,0,0-1.672-1.119l-2.1-.508a1.2,1.2,0,0,1-.887-.887l-.508-2.1A2.918,2.918,0,0,0,67.195,29.6L65.45,28.327a1.2,1.2,0,0,1-.481-1.16l.336-2.133a2.919,2.919,0,0,0-.391-1.971l-1.126-1.847a1.2,1.2,0,0,1,0-1.253l1.126-1.847a2.919,2.919,0,0,0,.391-1.971l-.336-2.133a1.2,1.2,0,0,1,.481-1.16l1.746-1.27a2.918,2.918,0,0,0,1.119-1.672l.508-2.1a1.2,1.2,0,0,1,.887-.887l2.1-.508A2.918,2.918,0,0,0,73.481,5.3l1.269-1.745a1.2,1.2,0,0,1,1.16-.481l2.133.336a2.918,2.918,0,0,0,1.971-.391l1.846-1.126a1.2,1.2,0,0,1,1.253,0l1.847,1.126a2.917,2.917,0,0,0,1.971.391l2.133-.336a1.2,1.2,0,0,1,1.16.481L91.5,5.3a2.919,2.919,0,0,0,1.672,1.119l2.1.508a1.2,1.2,0,0,1,.887.887l.508,2.1a2.918,2.918,0,0,0,1.119,1.672l1.745,1.269a1.2,1.2,0,0,1,.481,1.16l-.336,2.133a2.919,2.919,0,0,0,.391,1.971l1.126,1.847A1.2,1.2,0,0,1,101.188,21.216Z" transform="translate(-61.898 0)" fill="#dfb04b"/>
    </g>
  </g>
  <g id="Group_140" data-name="Group 140" transform="translate(10.496 10.65)">
    <g id="Group_139" data-name="Group 139" transform="translate(0)">
      <path id="Path_534" data-name="Path 534" d="M180.958,107.675a1.531,1.531,0,0,0-1.289-1.058l-5.15-.611-2.172-4.709a1.547,1.547,0,0,0-2.809,0l-2.172,4.709-5.15.611a1.547,1.547,0,0,0-.868,2.671l3.808,3.521-1.011,5.087a1.552,1.552,0,0,0,1.515,1.851,1.547,1.547,0,0,0,.757-.2l4.525-2.533,4.525,2.533a1.547,1.547,0,0,0,2.272-1.651l-1.011-5.087,3.808-3.521A1.531,1.531,0,0,0,180.958,107.675Zm-5.742,4.2a.856.856,0,0,0-.258.8l1.034,5.205-4.631-2.592a.856.856,0,0,0-.836,0l-4.631,2.592,1.034-5.205a.855.855,0,0,0-.258-.8l-3.9-3.6,5.271-.625a.856.856,0,0,0,.676-.491l2.223-4.819,2.223,4.819a.856.856,0,0,0,.676.491l5.27.625Z" transform="translate(-160.849 -100.398)" fill="#dfb04b"/>
    </g>
  </g>
</svg>
