<svg xmlns="http://www.w3.org/2000/svg" width="40" height="40.001" viewBox="0 0 40 40.001">
  <g id="money-bag" transform="translate(-2 -1.999)">
    <path id="Path_5771" data-name="Path 5771" d="M20.334,23a7.334,7.334,0,1,0,7.334,7.334A7.334,7.334,0,0,0,20.334,23Zm0,13.334a6,6,0,1,1,6-6A6,6,0,0,1,20.334,36.334Z" transform="translate(-3.666 -7)" fill="#daa54b"/>
    <path id="Path_5772" data-name="Path 5772" d="M41.941,29.727a.667.667,0,0,0-.607-.393H36V2.666A.667.667,0,0,0,35.334,2h-8a.667.667,0,0,0-.667.667V15.733a19.578,19.578,0,0,0-3.273-3.64A1.978,1.978,0,0,0,24,10.667a2,2,0,0,0-1.093-1.773l1.073-4.747a.651.651,0,0,0-.127-.56.667.667,0,0,0-.52-.253,3.105,3.105,0,0,1-1.88-.573,4.7,4.7,0,0,0-5.127,0,3.105,3.105,0,0,1-1.88.573A3.127,3.127,0,0,1,12.56,2.76,4.411,4.411,0,0,0,10,2a.657.657,0,0,0-.527.26.673.673,0,0,0-.12.58L10.92,8.713A2,2,0,0,0,9.94,12.1C5.013,16.267,2,24.094,2,29.334,2,38,9.454,38,16.667,38c3.88,0,7.307-.093,9.894-1.067l4.273,4.84a.667.667,0,0,0,1,0l10-11.334a.667.667,0,0,0,.107-.713ZM10.894,3.44a3.725,3.725,0,0,1,.987.467,4.419,4.419,0,0,0,2.567.76,4.411,4.411,0,0,0,2.56-.76,3.38,3.38,0,0,1,3.767,0,4.5,4.5,0,0,0,1.74.7l-.927,4.06h-.8l.54-3.227-1.32-.213-.573,3.44h-4.22l-.56-2.8-1.307.267.507,2.533H12.287Zm.44,6.56H22a.667.667,0,1,1,0,1.333L11.267,11.32a.659.659,0,0,1-.6-.653A.667.667,0,0,1,11.334,10Zm5.333,26.667c-8.294,0-13.334-.493-13.334-7.334,0-5.133,3.06-12.9,8.02-16.667H21.981a18.823,18.823,0,0,1,4.687,5.547v11.12H21.334a.667.667,0,0,0-.5,1.107l4.78,5.42C23.287,36.6,20.167,36.667,16.667,36.667Zm14.667,3.66-8.52-9.66h4.52A.667.667,0,0,0,28,30V3.333h6.667V30a.667.667,0,0,0,.667.667h4.52Z" transform="translate(0 0)" fill="#daa54b"/>
    <path id="Path_5773" data-name="Path 5773" d="M24.333,30.333v-.667A.667.667,0,0,0,23.667,29H21a.667.667,0,0,0-.667.667v.667A.667.667,0,0,0,21,31h2.667a2.006,2.006,0,0,1,2,2v.667a2.006,2.006,0,0,1-2,2H23v.667H21.667v-.667H21a2.006,2.006,0,0,1-2-2h1.333a.667.667,0,0,0,.667.667h2.667a.667.667,0,0,0,.667-.667V33a.667.667,0,0,0-.667-.667H21a2.006,2.006,0,0,1-2-2v-.667a2.006,2.006,0,0,1,2-2h.667V27H23v.667h.667a2.006,2.006,0,0,1,2,2v.667Z" transform="translate(-5.666 -8.333)" fill="#daa54b"/>
  </g>
</svg>
