<svg xmlns="http://www.w3.org/2000/svg" width="40" height="39.884" viewBox="0 0 40 39.884">
  <path id="tax" d="M35.964,22.872h1a1.288,1.288,0,0,0,1.287-1.287V20.3a1.288,1.288,0,0,0-1.287-1.287v-4.5H37.6a1.932,1.932,0,0,0,1.93-1.93V11.293a1.932,1.932,0,0,0-1.93-1.93H36.96V4.86a1.288,1.288,0,0,0,1.287-1.287V2.287A1.288,1.288,0,0,0,36.96,1H25.381a1.288,1.288,0,0,0-1.287,1.287V3.573A1.288,1.288,0,0,0,25.381,4.86v4.5H22.808a1.283,1.283,0,0,0-1.079.591l-8.515-.946a47.344,47.344,0,0,0-5.2-.288,3.216,3.216,0,1,0,0,6.433,47.344,47.344,0,0,0,5.2-.288l8.515-.946a1.283,1.283,0,0,0,1.079.591h2.573v4.5A1.288,1.288,0,0,0,24.094,20.3v1.287a1.288,1.288,0,0,0,1.287,1.287h1a9.7,9.7,0,0,0-2.908,2.573H4.439L.82,31.235l3.619,5.79H23.469a9.639,9.639,0,1,0,12.5-14.152ZM13.072,13.585a45.863,45.863,0,0,1-5.06.28,1.93,1.93,0,0,1,0-3.86,45.863,45.863,0,0,1,5.06.28l8.45.939v1.421ZM37.6,10.649a.644.644,0,0,1,.643.643v1.287a.644.644,0,0,1-.643.643H36.96V10.649ZM25.381,2.287H36.96V3.573H25.381ZM22.808,13.223V10.649h2.573v2.573Zm3.86-8.363h9.006V19.012H26.668ZM25.381,21.585V20.3H36.96v1.287ZM5.153,35.738l-2.814-4.5,2.814-4.5H22.643a9.6,9.6,0,0,0,0,9.006ZM31.171,39.6a8.363,8.363,0,1,1,8.363-8.363A8.372,8.372,0,0,1,31.171,39.6Zm2.573-7.72a1.93,1.93,0,1,0,1.93,1.93A1.932,1.932,0,0,0,33.744,31.878Zm0,2.573a.643.643,0,1,1,.643-.643A.644.644,0,0,1,33.744,34.451ZM28.6,30.592a1.93,1.93,0,1,0-1.93-1.93A1.932,1.932,0,0,0,28.6,30.592Zm0-2.573a.643.643,0,1,1-.643.643A.644.644,0,0,1,28.6,28.018Zm6.621-1.741.91.91-9.006,9.006-.91-.91ZM6.082,28.018h3.86V29.3H8.655v5.146H7.369V29.3H6.082Zm7.076,0a1.932,1.932,0,0,0-1.93,1.93v4.5h1.287V33.165H13.8v1.287h1.287v-4.5A1.932,1.932,0,0,0,13.158,28.018Zm-.643,3.86v-1.93a.643.643,0,0,1,1.287,0v1.93Zm6.433-3.86h1.287V29.5l-1.157,1.735,1.157,1.735v1.482H18.948V33.36l-.643-.965-.643.965v1.092H16.375V32.97l1.157-1.735L16.375,29.5V28.018h1.287V29.11l.643.965.643-.965Zm1.287-8.363a1.93,1.93,0,1,0-1.93,1.93A1.932,1.932,0,0,0,20.235,19.656Zm-2.573,0a.643.643,0,1,1,.643.643A.644.644,0,0,1,17.661,19.656Zm-2.573,0a1.93,1.93,0,1,0-1.93,1.93A1.932,1.932,0,0,0,15.088,19.656Zm-2.573,0a.643.643,0,1,1,.643.643A.644.644,0,0,1,12.515,19.656Zm-2.573,0a1.93,1.93,0,1,0-1.93,1.93A1.932,1.932,0,0,0,9.942,19.656Zm-2.573,0a.643.643,0,1,1,.643.643A.644.644,0,0,1,7.369,19.656Z" transform="translate(-0.82 -1)" fill="#daa54b"/>
</svg>
