<svg xmlns="http://www.w3.org/2000/svg" width="40" height="35.703" viewBox="0 0 40 35.703">
  <g id="villa" transform="translate(0 0)">
    <path id="Path_5911" data-name="Path 5911" d="M180.336,308h-2.215a.977.977,0,0,0-.977.977v5.781a.977.977,0,0,0,.977.977h2.215a.977.977,0,0,0,.977-.977v-5.781A.977.977,0,0,0,180.336,308Zm-.2,6.563h-1.825v-5.391h1.825Zm0,0" transform="translate(-163.305 -283.938)" fill="#daa54b"/>
    <path id="Path_5912" data-name="Path 5912" d="M325.086,372.633a.586.586,0,0,0-.586.586V374.5a.586.586,0,0,0,1.172,0v-1.281A.586.586,0,0,0,325.086,372.633Zm0,0" transform="translate(-299.148 -343.521)" fill="#daa54b"/>
    <path id="Path_5913" data-name="Path 5913" d="M300.466,174.75h-.352v-4.773a.978.978,0,0,0-.977-.977h-4.572a.978.978,0,0,0-.977.977v4.773h-.352a.978.978,0,0,0-.977.977v1.047a.978.978,0,0,0,.977.977h7.228a.977.977,0,0,0,.977-.977v-1.047A.978.978,0,0,0,300.466,174.75Zm-5.7-4.578h4.181v4.578h-4.181Zm5.509,6.406h-6.837v-.656h6.837Zm0,0" transform="translate(-269.428 -155.797)" fill="#daa54b"/>
    <path id="Path_5914" data-name="Path 5914" d="M39.414,34.531H37.156V31.892h2.017a.787.787,0,0,0,.7-1.217l-1.251-2.166a.763.763,0,0,0,.36-.316.818.818,0,0,0-.023-.825l-1.044-1.808a.758.758,0,0,0,.284-.279.819.819,0,0,0-.023-.825L36.415,21.4c-.007-.013-.016-.023-.023-.035V15.705h2.415a.731.731,0,0,0,.555-1.271L28.119,2.283a.942.942,0,0,0-1.391,0L24.182,5.035H15.43V3.514a.977.977,0,0,0,.938-.975V.976A.977.977,0,0,0,15.391,0H9.141a.977.977,0,0,0-.977.977V2.539a.977.977,0,0,0,.938.975V5.035H7.679a1.5,1.5,0,0,0-1.092.519L3.636,9.185a.746.746,0,0,0,.6,1.259H5.569v6.178H4.421a1.5,1.5,0,0,0-1.092.519L.378,20.773a.778.778,0,0,0-.134.836.779.779,0,0,0,.733.423h1.68v8.542a2.789,2.789,0,0,0-.624,1.761,2.828,2.828,0,0,0,.022.351h-.1a.978.978,0,0,0-.977.977v.87H.586a.586.586,0,0,0,0,1.172H39.414a.586.586,0,1,0,0-1.172Zm-.865-3.811H32.876l1.233-2.136h3.207ZM33.79,27.413l1-1.74H36.63l1,1.74ZM36.852,24.5H34.573l1.14-1.974ZM9.336,1.172H15.2V2.344H9.336Zm4.922,2.344V6.25H10.274V3.515ZM5.076,9.272,7.5,6.3a.4.4,0,0,1,.184-.089H9.1v.238a.977.977,0,0,0,.977.977h4.375a.977.977,0,0,0,.977-.977V6.207H23.1L20.262,9.272Zm10.231,6a.764.764,0,0,0,.735.435h2.415v.917H6.741V15.7h6.853a.977.977,0,0,0,.977-.977V12.148a.977.977,0,0,0-.977-.977H6.741v-.728H19.178l-3.692,3.99a.764.764,0,0,0-.179.835Zm-8.566-.739V12.344h4.052v2.187Zm5.224,0V12.344H13.4v2.187Zm.93,20H2.153v-.674H12.895ZM4.734,32.685H3.243a1.6,1.6,0,0,1-.039-.351,1.626,1.626,0,0,1,2.322-1.475,2.129,2.129,0,0,0-.8,1.663c0,.055,0,.109.007.163ZM11.1,31.676a.586.586,0,0,0,.468.492.663.663,0,0,1,.522.518H5.914a.959.959,0,0,1,1.354-1.032.586.586,0,0,0,.8-.318,1.578,1.578,0,0,1,3.033.341ZM10.425,29.3V25.234h1.825v5.391h-.278A2.784,2.784,0,0,0,10.425,29.3Zm-2.78.611a2.754,2.754,0,0,0-.423.508,2.122,2.122,0,0,0-.364-.031h-.01a2.843,2.843,0,0,0-1.028-.676V25.234H7.645Zm10.811-9.053H13.282a.586.586,0,1,0,0,1.172h5.175v12.5h-4.39v-.87a.978.978,0,0,0-.8-.959,1.831,1.831,0,0,0-.385-1.012.976.976,0,0,0,.536-.87V25.039a.977.977,0,0,0-.977-.977H10.229a.977.977,0,0,0-.977.977v4.129a2.738,2.738,0,0,0-.436.082V25.039a.977.977,0,0,0-.977-.977H5.625a.977.977,0,0,0-.977.977v4.5a2.779,2.779,0,0,0-.82.181V22.031h6.641a.586.586,0,1,0,0-1.172H1.818l2.42-2.976a.4.4,0,0,1,.184-.089H18.456ZM31.077,34.531V30.273a.586.586,0,0,0-1.172,0v4.258H24.943v-9.25h4.962v2.258a.586.586,0,0,0,1.172,0V25.086a.977.977,0,0,0-.977-.977H24.748a.977.977,0,0,0-.977.977v9.445H19.628V15.266l7.8-8.426,2.75,2.973a.586.586,0,1,0,.86-.8l-3.18-3.438a.586.586,0,0,0-.86,0l-8.284,8.954H16.991L27.424,3.256,37.857,14.533H36.139l-3.225-3.486a.586.586,0,1,0-.86.8l3.167,3.423V21.15a.918.918,0,0,0-.21.25l-1.764,3.055a.818.818,0,0,0-.023.825.753.753,0,0,0,.284.279l-1.044,1.808a.819.819,0,0,0-.023.825.766.766,0,0,0,.36.316l-1.251,2.166a.787.787,0,0,0,.7,1.217h2.017v2.639Zm4.907,0H35.44V31.892h.544Zm0,0" fill="#daa54b"/>
  </g>
</svg>
