<svg xmlns="http://www.w3.org/2000/svg" xmlns:xlink="http://www.w3.org/1999/xlink" width="80" height="80" viewBox="0 0 80 80">
  <defs>
    <linearGradient id="linear-gradient" x1="0.866" y1="0.18" x2="0.146" y2="0.784" gradientUnits="objectBoundingBox">
      <stop offset="0" stop-color="#f8cb65"/>
      <stop offset="1" stop-color="#daa54b"/>
    </linearGradient>
    <filter id="Ellipse_177" x="0" y="0" width="80" height="80" filterUnits="userSpaceOnUse">
      <feOffset dy="3" input="SourceAlpha"/>
      <feGaussianBlur stdDeviation="3" result="blur"/>
      <feFlood flood-opacity="0.161"/>
      <feComposite operator="in" in2="blur"/>
      <feComposite in="SourceGraphic"/>
    </filter>
  </defs>
  <g id="Group_596" data-name="Group 596" transform="translate(-1814 -983)">
    <g transform="matrix(1, 0, 0, 1, 1814, 983)" filter="url(#Ellipse_177)">
      <g id="Ellipse_177-2" data-name="Ellipse 177" transform="translate(9 6)" stroke="#f5c762" stroke-width="1" fill="url(#linear-gradient)">
        <circle cx="31" cy="31" r="31" stroke="none"/>
        <circle cx="31" cy="31" r="30.5" fill="none"/>
      </g>
    </g>
    <g id="contact" transform="translate(1836 1006.154)">
      <g id="Group_247" data-name="Group 247" transform="translate(0 -0.001)">
        <g id="Group_246" data-name="Group 246" transform="translate(0 0)">
          <path id="Path_742" data-name="Path 742" d="M32.837,12.813H8.883a1.46,1.46,0,0,0-1.458,1.458v6.607l-1.1-1.643a1.694,1.694,0,0,0-2.287-.515L1.789,20.075a3.307,3.307,0,0,0-1.51,1.959c-.822,2.993-.212,8.151,7.358,15.722,6.02,6.014,10.508,7.633,13.6,7.633a7.987,7.987,0,0,0,2.121-.277,3.312,3.312,0,0,0,1.96-1.509l1.353-2.256a1.694,1.694,0,0,0-.515-2.284l-5.4-3.6a1.7,1.7,0,0,0-2.28.37l-1.571,2.02a.547.547,0,0,1-.7.148l-.3-.165a17.972,17.972,0,0,1-4.682-3.677c-.268-.268-.51-.518-.738-.758H32.837A1.457,1.457,0,0,0,34.3,31.955V14.271A1.46,1.46,0,0,0,32.837,12.813ZM15.365,38.845l.29.16a1.684,1.684,0,0,0,2.158-.445l1.571-2.02a.556.556,0,0,1,.743-.121l5.4,3.6a.552.552,0,0,1,.167.743l-1.353,2.256a2.172,2.172,0,0,1-1.281.995c-2.7.743-7.432.114-14.611-7.065S.642,25.037,1.383,22.337a2.173,2.173,0,0,1,.994-1.281L4.633,19.7a.553.553,0,0,1,.743.167l3.6,5.4a.555.555,0,0,1-.121.743l-2.02,1.572a1.684,1.684,0,0,0-.445,2.158l.16.29a18.953,18.953,0,0,0,3.873,4.943A18.99,18.99,0,0,0,15.365,38.845Zm17.787-6.89a.312.312,0,0,1-.314.309H9.461a14.418,14.418,0,0,1-1.908-2.781l-.165-.3a.545.545,0,0,1,.148-.7l2.02-1.572a1.7,1.7,0,0,0,.37-2.28L8.568,22.594V14.271a.311.311,0,0,1,.314-.314H32.837a.311.311,0,0,1,.314.314V31.955Z" transform="translate(-0.001 -12.813)" fill="#fdfdf9"/>
          <path id="Path_743" data-name="Path 743" d="M169.244,50.7l-9.555,7.246a.771.771,0,0,1-.907,0L149.231,50.7a.572.572,0,1,0-.691.911l9.553,7.246a1.924,1.924,0,0,0,2.287,0l9.556-7.246a.572.572,0,0,0-.691-.911Z" transform="translate(-138.377 -48.057)" fill="#fdfdf9"/>
          <path id="Path_744" data-name="Path 744" d="M154.82,172.571l-5.857,6.272a.572.572,0,0,0,.836.78l5.857-6.274a.572.572,0,0,0-.836-.777Z" transform="translate(-138.84 -161.718)" fill="#fdfdf9"/>
          <path id="Path_745" data-name="Path 745" d="M370.941,172.26a.572.572,0,1,0-.836.78l5.855,6.272a.572.572,0,0,0,.836-.78Z" transform="translate(-345.166 -161.408)" fill="#fdfdf9"/>
        </g>
      </g>
    </g>
  </g>
</svg>
